# xmcd
# Copyright (C) 1995-1998 Ti Kan
#
# Track frame offsets:
#       150
#       11008
#       22030
#       32121
#       43097
#       53968
#       64533
#       78731
#       89991
#       100815
#       111141
#       121131
#       132948
#       144735
#       155708
#       165694
#       175331
#
# Disc length: 2488 seconds
#
# Revision: 0
# Processed by: cddbd v1.5.2PL0 Copyright (c) Steve Scherf et al.
# Submitted via: CD-Import v1.0
#
DISCID=f209b611
DTITLE=American Breed - Bend Me, Shape Me - The Best Of
DYEAR=1900
DGENRE=
TTITLE0=Bend Me, Shape Me
TTITLE1=Step Out Of Your Mind
TTITLE2=Green Light
TTITLE3=Ready, Willing And Able
TTITLE4=Anyway That You Wante Me
TTITLE5=Cool It (We're Not Alone)
TTITLE6=Don't It Make You Cry 
TTITLE7=To Put Up With You
TTITLE8=Take Me If You Want Me
TTITLE9=Don't Make Me Leave You
TTITLE10=Can't Make It Without You
TTITLE11=I Don't Think You Know Me
TTITLE12=Don't Forget About Me
TTITLE13=Master Of My Fate
TTITLE14=Always You
TTITLE15=Train On A One-Track Mind
TTITLE16=Keep The Faith
EXTD=
EXTT0=
EXTT1=
EXTT2=
EXTT3=
EXTT4=
EXTT5=
EXTT6=
EXTT7=
EXTT8=
EXTT9=
EXTT10=
EXTT11=
EXTT12=
EXTT13=
EXTT14=
EXTT15=
EXTT16=
PLAYORDER=
